<?xml version="1.0" standalone="no"?>
<!DOCTYPE svg PUBLIC "-//W3C//DTD SVG 20010904//EN"
 "http://www.w3.org/TR/2001/REC-SVG-20010904/DTD/svg10.dtd">
<svg version="1.0" xmlns="http://www.w3.org/2000/svg"
 width="48.000000pt" height="48.000000pt" viewBox="0 0 48.000000 48.000000"
 preserveAspectRatio="xMidYMid meet">

<g transform="translate(0.000000,48.000000) scale(0.100000,-0.100000)"
fill="#000000" stroke="none">
<path d="M16 464 c-24 -23 -24 -425 0 -448 12 -13 38 -16 120 -16 l104 0 0 67
c0 52 -3 64 -12 55 -7 -7 -18 -12 -26 -12 -21 0 -7 79 18 106 36 37 23 48 -24
20 -43 -25 -45 -25 -90 -10 -26 9 -45 21 -43 27 2 7 43 27 90 46 l87 34 0 74
0 73 -104 0 c-82 0 -108 -3 -120 -16z"/>
</g>
</svg>
